<svg width="54" height="54" viewBox="0 0 54 54" fill="none" xmlns="http://www.w3.org/2000/svg">
<circle cx="27" cy="27" r="26.5" fill="white" stroke="#D9D9D9"/>
<path d="M43.0701 27.0007C43.0701 18.1235 35.8752 10.9286 26.9993 10.9286C18.1235 10.9286 10.9286 18.1235 10.9286 27.0007C10.9286 35.0207 16.8056 41.6692 24.4881 42.8746V31.6455H20.4084V26.9993H24.4881V23.4595C24.4881 19.4307 26.8882 17.2061 30.558 17.2061C32.3165 17.2061 34.1554 17.5195 34.1554 17.5195V21.4746H32.1304C30.1347 21.4746 29.512 22.7135 29.512 23.9845V27.0007H33.9693L33.2568 31.6469H29.512V42.8759C37.1944 41.6705 43.0714 35.022 43.0714 27.0007H43.0701Z" fill="black"/>
</svg>
