<svg width="54" height="54" viewBox="0 0 54 54" fill="none" xmlns="http://www.w3.org/2000/svg">
<circle cx="27" cy="27" r="26.5" fill="white" stroke="#D9D9D9"/>
<path fill-rule="evenodd" clip-rule="evenodd" d="M20.3741 11.025C22.0884 10.9464 22.6348 10.9286 27 10.9286C31.366 10.9286 31.9116 10.9473 33.625 11.025C35.3366 11.1027 36.5054 11.375 37.5277 11.7723C38.5999 12.176 39.5712 12.8086 40.3741 13.6259C41.1915 14.4287 41.8242 15.4 42.2277 16.4723C42.625 17.4947 42.8964 18.6634 42.975 20.3741C43.0536 22.0884 43.0714 22.6348 43.0714 27C43.0714 31.3652 43.0527 31.9116 42.975 33.626C42.8973 35.3366 42.625 36.5054 42.2277 37.5277C41.817 38.584 41.2669 39.4812 40.3741 40.3741C39.5714 41.1915 38.5999 41.8242 37.5277 42.2277C36.5054 42.625 35.3366 42.8964 33.626 42.975C31.9116 43.0536 31.3652 43.0714 27 43.0714C22.6348 43.0714 22.0884 43.0527 20.3741 42.975C18.6634 42.8973 17.4947 42.625 16.4723 42.2277C15.4161 41.817 14.5188 41.2669 13.6259 40.3741C12.8084 39.5714 12.1758 38.5999 11.7723 37.5277C11.375 36.5054 11.1036 35.3366 11.025 33.626C10.9464 31.9116 10.9286 31.366 10.9286 27C10.9286 22.634 10.9473 22.0884 11.025 20.375C11.1027 18.6634 11.375 17.4947 11.7723 16.4723C12.176 15.4001 12.8086 14.4288 13.6259 13.6259C14.4286 12.8084 15.4 12.1758 16.4723 11.7723C17.4947 11.375 18.6634 11.1036 20.3741 11.025ZM33.4946 13.9179C31.8 13.8411 31.2911 13.8241 27 13.8241C22.7089 13.8241 22.2 13.8411 20.5054 13.9179C18.9384 13.9893 18.0875 14.2509 17.5214 14.4714C16.7714 14.7625 16.2357 15.1107 15.6732 15.6732C15.1116 16.2357 14.7625 16.7714 14.4714 17.5214C14.2509 18.0875 13.9893 18.9384 13.9179 20.5054C13.8411 22.2 13.8241 22.7089 13.8241 27C13.8241 31.2911 13.8411 31.8 13.9179 33.4946C13.9893 35.0616 14.2509 35.9125 14.4714 36.4787C14.7289 37.1767 15.1396 37.8082 15.6732 38.3269C16.1917 38.8604 16.8233 39.2711 17.5214 39.5286C18.0875 39.7492 18.9384 40.0107 20.5054 40.0822C22.2 40.159 22.7081 40.176 27 40.176C31.292 40.176 31.8 40.159 33.4946 40.0822C35.0616 40.0107 35.9125 39.7492 36.4787 39.5286C37.2286 39.2375 37.7644 38.8894 38.3269 38.3269C38.8604 37.8083 39.2711 37.1767 39.5286 36.4787C39.7492 35.9125 40.0107 35.0616 40.0822 33.4946C40.159 31.8 40.176 31.2911 40.176 27C40.176 22.7089 40.159 22.2 40.0822 20.5054C40.0107 18.9384 39.7492 18.0875 39.5286 17.5214C39.2375 16.7714 38.8894 16.2357 38.3269 15.6732C37.7644 15.1116 37.2286 14.7625 36.4787 14.4714C35.9125 14.2509 35.0616 13.9893 33.4946 13.9179ZM24.948 31.9543C25.5986 32.2238 26.2958 32.3625 27 32.3625C28.4223 32.3625 29.7862 31.7975 30.7919 30.7919C31.7976 29.7862 32.3626 28.4222 32.3626 27C32.3626 25.5778 31.7976 24.2138 30.7919 23.2082C29.7862 22.2025 28.4223 21.6375 27 21.6375C26.2958 21.6375 25.5986 21.7762 24.948 22.0457C24.2972 22.3152 23.7061 22.7102 23.2082 23.2082C22.7102 23.7061 22.3152 24.2972 22.0458 24.9478C21.7763 25.5984 21.6376 26.2958 21.6376 27C21.6376 27.7042 21.7763 28.4016 22.0458 29.0522C22.3152 29.7028 22.7102 30.2939 23.2082 30.7919C23.7061 31.2898 24.2972 31.6848 24.948 31.9543ZM21.1589 21.1588C22.708 19.6096 24.8092 18.7393 27 18.7393C29.191 18.7393 31.2921 19.6096 32.8413 21.1588C34.3904 22.708 35.2607 24.8092 35.2607 27C35.2607 29.1908 34.3904 31.292 32.8413 32.8413C31.2921 34.3904 29.191 35.2607 27 35.2607C24.8092 35.2607 22.708 34.3904 21.1589 32.8413C19.6097 31.292 18.7393 29.1908 18.7393 27C18.7393 24.8092 19.6097 22.708 21.1589 21.1588ZM37.0924 19.9701C37.4586 19.6038 37.6643 19.1072 37.6643 18.5893C37.6643 18.0714 37.4586 17.5747 37.0924 17.2085C36.7262 16.8423 36.2295 16.6366 35.7116 16.6366C35.1938 16.6366 34.6971 16.8423 34.3309 17.2085C33.9646 17.5747 33.7589 18.0714 33.7589 18.5893C33.7589 19.1072 33.9646 19.6038 34.3309 19.9701C34.6971 20.3362 35.1938 20.542 35.7116 20.542C36.2295 20.542 36.7262 20.3362 37.0924 19.9701Z" fill="black"/>
</svg>
