<svg width="54" height="54" viewBox="0 0 54 54" fill="none" xmlns="http://www.w3.org/2000/svg">
<circle cx="27" cy="27" r="26.5" fill="white" stroke="#D9D9D9"/>
<path d="M25.1331 31.3676C24.1033 32.5076 23.1313 33.7234 22.1086 34.8298C21.2176 35.7934 20.3525 36.7799 19.5131 37.7893C18.7282 38.7333 17.735 39.7165 16.9866 40.6815C16.6138 41.1633 16.3395 41.3944 15.684 41.4014C14.3279 41.4173 12.9737 41.4159 11.6213 41.3972C11.5482 41.3963 11.5379 41.3702 11.5904 41.3188C12.2895 40.6353 12.9437 39.9742 13.5837 39.2193C16.1707 36.1744 18.7057 33.3984 21.6612 29.9796C22.0143 29.572 22.4673 29.1462 22.781 28.7919C23.331 28.1742 22.916 27.7932 22.4504 27.2022C18.8257 22.5923 15.261 17.9377 11.7564 13.2382C11.5538 12.9665 11.1613 12.6556 10.9447 12.2928C10.9128 12.2387 10.9283 12.2125 10.9911 12.2144C14.2787 12.3152 17.5718 12.2116 20.8622 12.248C20.91 12.248 20.9489 12.2667 20.979 12.304C21.3935 12.8194 21.7935 13.3419 22.1789 13.8713C23.9936 16.363 25.9138 18.7832 27.7763 21.2398C27.9043 21.4079 27.9606 21.5914 28.2138 21.583C28.2635 21.5811 28.3052 21.5615 28.339 21.5242C29.2609 20.4924 30.1729 19.4531 31.0751 18.4064C31.4184 18.0073 32.2948 17.0857 32.849 16.3784C33.1013 16.0562 33.3484 15.7668 33.5904 15.51C34.6088 14.4301 35.3938 13.1752 36.636 12.2746C36.6697 12.2503 36.7072 12.2382 36.7485 12.2382H41.0208C41.1961 12.2382 41.2238 12.3022 41.1038 12.4301C39.1807 14.4778 37.4125 16.5562 35.3938 18.7776C34.4879 19.7734 33.1416 21.4443 31.8896 22.7959C31.3307 23.3991 30.8725 23.9309 30.5152 24.3912C30.3816 24.5635 30.4702 24.7946 30.601 24.9654C34.7734 30.4212 38.928 35.8938 43.0647 41.3832C43.0685 41.3881 43.0708 41.3939 43.0713 41.4C43.0719 41.406 43.0707 41.4121 43.0679 41.4176C43.0651 41.423 43.0608 41.4275 43.0555 41.4306C43.0502 41.4337 43.0442 41.4353 43.038 41.4351C39.9334 41.365 37.0819 41.4659 33.7128 41.407C33.1824 41.3986 33.1388 41.211 32.7998 40.7656C30.5237 37.7767 28.2208 34.6282 25.8843 31.8704C25.722 31.679 25.5129 31.5053 25.2568 31.3494C25.21 31.3213 25.1687 31.3274 25.1331 31.3676ZM17.2117 16.0072C18.8688 18.1725 20.4542 20.4009 22.1395 22.541C24.8254 25.951 27.3257 29.2022 29.6402 32.2948C30.2264 33.0772 30.7872 33.8009 31.3227 34.4657C32.3567 35.7472 33.302 37.0862 34.2684 38.2627C34.9127 39.047 36.0704 38.7767 36.9722 38.6871C37.0139 38.6832 37.0543 38.6698 37.09 38.648C37.1258 38.6261 37.156 38.5964 37.1784 38.5611C37.2009 38.5258 37.2149 38.4858 37.2193 38.4443C37.2238 38.4028 37.2187 38.3608 37.2043 38.3215C37.1536 38.1815 37.0627 38.0237 36.9314 37.8481C31.6055 30.7233 26.2739 23.597 20.8552 16.5422C20.5105 16.094 20.1602 15.5492 19.7917 15.0674C19.7676 15.0355 19.7374 15.0088 19.7029 14.9888C19.6683 14.9689 19.6301 14.9561 19.5905 14.9512C18.602 14.8316 17.6131 14.8354 16.6237 14.9624C16.5939 14.966 16.5657 14.9776 16.5419 14.9959C16.5182 15.0142 16.4998 15.0385 16.4887 15.0663C16.4776 15.0941 16.4743 15.1243 16.479 15.1538C16.4836 15.1833 16.4962 15.2111 16.5154 15.2341C16.7433 15.5058 17.0077 15.7425 17.2117 16.0072Z" fill="black"/>
</svg>
